<svg width="24" height="24" viewBox="0 0 24 24" fill="none" xmlns="http://www.w3.org/2000/svg">
<path d="M12 0C18.6274 0 24 5.37258 24 12C24 18.6274 18.6274 24 12 24C5.37258 24 0 18.6274 0 12C0 5.37258 5.37258 0 12 0ZM12 4C9.23858 4 7 6.23858 7 9C7 10.9811 8.15242 12.6926 9.82324 13.502C7.68262 14.1319 5.76871 15.9359 4.54004 18.8027L5.45996 19.1973C6.90599 15.8232 9.25626 14.25 11.5625 14.25C13.8782 14.25 16.3583 15.8347 18.0527 19.2236L18.9473 18.7764C17.6276 16.137 15.7926 14.4039 13.8037 13.6621C15.6733 12.9383 17 11.1251 17 9C17 6.23858 14.7614 4 12 4ZM12 5C14.2091 5 16 6.79086 16 9C16 11.2091 14.2091 13 12 13C9.79086 13 8 11.2091 8 9C8 6.79086 9.79086 5 12 5Z" fill="#006089"/>
</svg>
