<svg width="24" height="24" viewBox="0 0 24 24" fill="none" xmlns="http://www.w3.org/2000/svg">
<path d="M12 0C18.6274 0 24 5.37258 24 12C24 18.6274 18.6274 24 12 24C5.37258 24 0 18.6274 0 12C0 5.37258 5.37258 0 12 0ZM6.35059 15.0352C6.2938 14.9833 6.20218 15.0128 6.18555 15.0879L5.5127 18.1318C5.49613 18.2069 5.56733 18.272 5.64062 18.249L8.61328 17.3086C8.68668 17.2854 8.70719 17.1916 8.65039 17.1396L6.35059 15.0352ZM14.1582 6.66504C14.118 6.62726 14.0544 6.62882 14.0166 6.66895L6.74805 14.4043C6.71023 14.4445 6.71268 14.5081 6.75293 14.5459L9.16797 16.8154C9.20817 16.8528 9.27087 16.8505 9.30859 16.8105L16.5771 9.0752C16.6149 9.03501 16.6133 8.97143 16.5732 8.93359L14.1582 6.66504ZM14.5059 6.2041L17.0352 8.57324L17.7188 7.84375L15.1895 5.47461L14.5059 6.2041ZM17.0449 4.33887C16.8418 4.15186 16.5259 4.16505 16.3389 4.36816L15.665 5.09863L18.1709 7.40625L18.8447 6.67578C19.0318 6.47266 19.0185 6.15582 18.8154 5.96875L17.0449 4.33887Z" fill="#006089"/>
</svg>
