<svg width="25" height="25" viewBox="0 0 25 25" fill="none" xmlns="http://www.w3.org/2000/svg">
<path d="M12.5 0.5C19.1274 0.5 24.5 5.87258 24.5 12.5C24.5 19.1274 19.1274 24.5 12.5 24.5C5.87258 24.5 0.5 19.1274 0.5 12.5C0.5 5.87258 5.87258 0.5 12.5 0.5ZM13.2012 5.37793C13.1113 5.10182 12.7208 5.10182 12.6309 5.37793L11.0752 10.166L11.0566 10.2109C11.0132 10.2954 10.9316 10.3539 10.8379 10.3691L10.79 10.373H5.75488C5.4646 10.3734 5.34411 10.7453 5.5791 10.916L5.75488 11.043L9.65234 13.875L9.68848 13.9062C9.76683 13.985 9.79589 14.1028 9.76074 14.2109L8.27148 18.791L8.20508 18.998C8.12087 19.2572 8.39389 19.476 8.62207 19.3613L8.66699 19.334L12.7393 16.375C12.8444 16.2986 12.9876 16.2986 13.0928 16.375L17.165 19.334L17.21 19.3613C17.4381 19.476 17.7112 19.2572 17.627 18.998L16.0713 14.2109C16.0312 14.0874 16.0747 13.9514 16.1797 13.875L20.2529 10.916C20.4879 10.7453 20.3674 10.3734 20.0771 10.373H15.042C14.9122 10.3729 14.797 10.2895 14.7568 10.166L13.2012 5.37793ZM13.8057 10.4746C13.9797 11.0101 14.4789 11.3729 15.042 11.373H17.9229L15.5928 13.0664C15.1372 13.3974 14.9461 13.9839 15.1201 14.5195L16.0098 17.2588L13.6797 15.5654C13.2526 15.2554 12.684 15.2364 12.2393 15.5078L12.1523 15.5654L9.82129 17.2588L10.7119 14.5195C10.8859 13.9839 10.6949 13.3974 10.2393 13.0664L7.90918 11.373H10.79C11.3531 11.3729 11.8524 11.0101 12.0264 10.4746L12.916 7.73633L13.8057 10.4746Z" fill="#006089"/>
</svg>
