<svg width="24" height="24" viewBox="0 0 24 24" fill="none" xmlns="http://www.w3.org/2000/svg">
<path d="M12 0C18.6274 0 24 5.37258 24 12C24 18.6274 18.6274 24 12 24C5.37258 24 0 18.6274 0 12C0 5.37258 5.37258 0 12 0ZM5.5 7C4.39543 7 3.5 7.89543 3.5 9V16L3.51074 16.2041C3.6062 17.1457 4.35435 17.8938 5.2959 17.9893L5.5 18H18.5L18.7041 17.9893C19.6457 17.8938 20.3938 17.1457 20.4893 16.2041L20.5 16V9C20.5 7.89543 19.6046 7 18.5 7H5.5ZM18.5 8C19.0523 8 19.5 8.44772 19.5 9V16C19.5 16.5523 19.0523 17 18.5 17H5.5C4.94772 17 4.5 16.5523 4.5 16V9L4.50488 8.89746C4.55621 8.39333 4.98232 8 5.5 8H18.5ZM12 9.10938C10.067 9.10938 8.50006 10.6764 8.5 12.6094L8.50488 12.7891C8.59842 14.6385 10.1273 16.1094 12 16.1094C13.8727 16.1094 15.4016 14.6385 15.4951 12.7891L15.5 12.6094C15.4999 10.6764 13.933 9.10938 12 9.10938ZM12 10.1094C13.3807 10.1094 14.4999 11.2287 14.5 12.6094C14.5 13.9901 13.3807 15.1094 12 15.1094C10.6193 15.1094 9.5 13.9901 9.5 12.6094C9.50006 11.2287 10.6193 10.1094 12 10.1094ZM17 9C16.4477 9 16 9.44772 16 10C16 10.5523 16.4477 11 17 11C17.5523 11 18 10.5523 18 10C18 9.44772 17.5523 9 17 9Z" fill="#006089"/>
</svg>
