<svg width="25" height="25" viewBox="0 0 25 25" fill="none" xmlns="http://www.w3.org/2000/svg">
<path d="M12.541 0.5C19.1684 0.5 24.541 5.87258 24.541 12.5C24.541 19.1274 19.1684 24.5 12.541 24.5C5.91363 24.5 0.541016 19.1274 0.541016 12.5C0.541016 5.8726 5.91363 0.500031 12.541 0.5ZM8.03516 5.52734C7.69161 5.47992 7.36006 5.48827 7.08398 5.60352C6.77607 5.73223 6.56564 5.98444 6.5127 6.31445C6.46597 6.60588 6.55166 6.89901 6.67188 7.15039C6.80243 7.42335 7.00649 7.71067 7.26758 8H5V12H6V20H19V12H20V8H18.2354C18.4373 7.75881 18.5989 7.5211 18.708 7.29297C18.8281 7.04166 18.9139 6.74833 18.8672 6.45703C18.8141 6.12721 18.6037 5.87476 18.2959 5.74609C18.0198 5.63087 17.6882 5.62251 17.3447 5.66992C16.9923 5.71861 16.5756 5.83303 16.0947 6.01562C15.2478 6.33722 14.1593 6.88542 12.8037 7.71875C11.3413 6.80548 10.1791 6.21253 9.28516 5.87305C8.80424 5.69045 8.38756 5.57604 8.03516 5.52734ZM10 19H7V12H10V19ZM14 19H11V12H14V19ZM18 19H15V12H18V19ZM10 11H6V9H10V11ZM14 11H11V9H14V11ZM19 11H15V9H19V11ZM7.50488 6.51562C7.56605 6.50108 7.6886 6.48861 7.89844 6.51758C8.15241 6.55269 8.49314 6.64245 8.93066 6.80859C9.55484 7.04566 10.3489 7.43027 11.332 8H8.66602L8.69238 7.9668C8.09748 7.49087 7.72644 7.03903 7.57324 6.71875C7.5367 6.64226 7.5164 6.58153 7.50684 6.53711C7.50517 6.52936 7.50588 6.52197 7.50488 6.51562ZM17.875 6.6582C17.874 6.66444 17.8746 6.67208 17.873 6.67969C17.8635 6.72405 17.8431 6.78498 17.8066 6.86133C17.6652 7.1571 17.3371 7.56447 16.8193 8H14.2959C15.1655 7.508 15.8785 7.16792 16.4492 6.95117C16.8867 6.78503 17.2275 6.69525 17.4814 6.66016C17.6913 6.6312 17.8138 6.64366 17.875 6.6582Z" fill="#006089"/>
</svg>
