<svg width="25" height="24" viewBox="0 0 25 24" fill="none" xmlns="http://www.w3.org/2000/svg">
<path d="M12.5 0C19.1274 0 24.5 5.37258 24.5 12C24.5 18.6274 19.1274 24 12.5 24C5.87258 24 0.5 18.6274 0.5 12C0.5 5.37258 5.87258 0 12.5 0ZM12.5 4.98242C8.63401 4.98242 5.5 8.11643 5.5 11.9824C5.5 15.8484 8.63401 18.9824 12.5 18.9824C16.366 18.9824 19.5 15.8484 19.5 11.9824C19.5 8.11643 16.366 4.98242 12.5 4.98242ZM12.5 5.98242C15.8137 5.98242 18.5 8.66871 18.5 11.9824C18.5 15.2961 15.8137 17.9824 12.5 17.9824C9.18629 17.9824 6.5 15.2961 6.5 11.9824C6.5 8.66871 9.18629 5.98242 12.5 5.98242ZM15.584 12.7227C14.649 14.1251 13.5189 14.7314 12.4727 14.7246C11.425 14.7177 10.3134 14.095 9.41895 12.7266L8.58105 13.2734C9.6036 14.8379 10.9929 15.7148 12.4658 15.7246C13.9401 15.7343 15.3512 14.8746 16.416 13.2773L15.584 12.7227ZM10.5 9.5C10.2239 9.5 10 9.72386 10 10C10 10.2761 10.2239 10.5 10.5 10.5C10.7761 10.5 11 10.2761 11 10C11 9.72386 10.7761 9.5 10.5 9.5ZM14.5 9.5C14.2239 9.5 14 9.72386 14 10C14 10.2761 14.2239 10.5 14.5 10.5C14.7761 10.5 15 10.2761 15 10C15 9.72386 14.7761 9.5 14.5 9.5Z" fill="#006089"/>
</svg>
